<svg xmlns="http://www.w3.org/2000/svg" viewBox="0 0 120 120" role="img" aria-labelledby="title desc">
  <title id="title">UDAAN DMS Logo</title>
  <desc id="desc">Abstract shield and folder mark for UDAAN Document Management System</desc>
  <defs>
    <linearGradient id="bg" x1="0" x2="1" y1="0" y2="1">
      <stop offset="0" stop-color="#00E0FF" />
      <stop offset="1" stop-color="#FF6B35" />
    </linearGradient>
  </defs>
  <rect x="6" y="6" width="108" height="108" rx="24" fill="#020617" />
  <rect x="10" y="10" width="100" height="100" rx="22" fill="url(#bg)" opacity="0.12" />
  <path
    d="M32 34h32c3.3 0 6 2.7 6 6v8.5c0 1.1-.9 2-2 2H46l-6 6-6-6h-2c-3.3 0-6-2.7-6-6V40c0-3.3 2.7-6 6-6z"
    fill="#00E0FF"
    opacity="0.9"
  />
  <path
    d="M40 60h40c3.3 0 6 2.7 6 6v10c0 6.9-3.6 13.3-9.6 17L68 99.5a12 12 0 0 0-12 0L35.6 93C29.6 89.3 26 82.9 26 76V66c0-3.3 2.7-6 6-6z"
    fill="#0EA5E9"
    opacity="0.7"
  />
  <path
    d="M40 64h32c2.2 0 4 1.8 4 4v6.5c0 4.3-2.2 8.4-5.8 10.7L60 93l-10.2-7.8A12.9 12.9 0 0 1 44 74.5V68c0-2.2 1.8-4 4-4z"
    fill="#F97316"
    opacity="0.9"
  />
  <text x="60" y="40" text-anchor="middle" fill="#E5E7EB" font-size="11" font-family="system-ui, -apple-system, BlinkMacSystemFont, 'Inter', sans-serif" letter-spacing="1.8">
    UDAAN
  </text>
  <text x="60" y="52" text-anchor="middle" fill="#9CA3AF" font-size="7" font-family="system-ui, -apple-system, BlinkMacSystemFont, 'Inter', sans-serif" letter-spacing="1.4">
    D M S
  </text>
</svg>
